<mxfile host="app.diagrams.net" agent="Mozilla/5.0 (Windows NT 10.0; Win64; x64) AppleWebKit/537.36 (KHTML, like Gecko) Chrome/141.0.0.0 Safari/537.36" version="28.2.8">
  <diagram name="Página-1" id="mVlB65z8_JKus2kDmack">
    <mxGraphModel dx="1042" dy="570" grid="1" gridSize="10" guides="1" tooltips="1" connect="1" arrows="1" fold="1" page="1" pageScale="1" pageWidth="827" pageHeight="1169" math="0" shadow="0">
      <root>
        <mxCell id="0" />
        <mxCell id="1" parent="0" />
        <mxCell id="vEDVwVPxesnHrMMO5t7R-10" style="edgeStyle=orthogonalEdgeStyle;rounded=0;orthogonalLoop=1;jettySize=auto;html=1;exitX=0;exitY=0.75;exitDx=0;exitDy=0;entryX=0.5;entryY=0;entryDx=0;entryDy=0;" edge="1" parent="1" source="vEDVwVPxesnHrMMO5t7R-1" target="vEDVwVPxesnHrMMO5t7R-3">
          <mxGeometry relative="1" as="geometry" />
        </mxCell>
        <mxCell id="vEDVwVPxesnHrMMO5t7R-12" style="edgeStyle=orthogonalEdgeStyle;rounded=0;orthogonalLoop=1;jettySize=auto;html=1;exitX=0.5;exitY=1;exitDx=0;exitDy=0;entryX=0.5;entryY=0;entryDx=0;entryDy=0;" edge="1" parent="1" source="vEDVwVPxesnHrMMO5t7R-1" target="vEDVwVPxesnHrMMO5t7R-4">
          <mxGeometry relative="1" as="geometry" />
        </mxCell>
        <mxCell id="vEDVwVPxesnHrMMO5t7R-14" style="edgeStyle=orthogonalEdgeStyle;rounded=0;orthogonalLoop=1;jettySize=auto;html=1;exitX=1;exitY=0.75;exitDx=0;exitDy=0;entryX=0.5;entryY=0;entryDx=0;entryDy=0;" edge="1" parent="1" source="vEDVwVPxesnHrMMO5t7R-1" target="vEDVwVPxesnHrMMO5t7R-5">
          <mxGeometry relative="1" as="geometry" />
        </mxCell>
        <mxCell id="vEDVwVPxesnHrMMO5t7R-17" style="edgeStyle=orthogonalEdgeStyle;rounded=0;orthogonalLoop=1;jettySize=auto;html=1;exitX=0;exitY=0.25;exitDx=0;exitDy=0;entryX=0.5;entryY=0;entryDx=0;entryDy=0;" edge="1" parent="1" source="vEDVwVPxesnHrMMO5t7R-1" target="vEDVwVPxesnHrMMO5t7R-2">
          <mxGeometry relative="1" as="geometry" />
        </mxCell>
        <mxCell id="vEDVwVPxesnHrMMO5t7R-18" style="edgeStyle=orthogonalEdgeStyle;rounded=0;orthogonalLoop=1;jettySize=auto;html=1;exitX=1;exitY=0.25;exitDx=0;exitDy=0;" edge="1" parent="1" source="vEDVwVPxesnHrMMO5t7R-1" target="vEDVwVPxesnHrMMO5t7R-6">
          <mxGeometry relative="1" as="geometry" />
        </mxCell>
        <mxCell id="vEDVwVPxesnHrMMO5t7R-1" value="Home" style="rounded=0;whiteSpace=wrap;html=1;" vertex="1" parent="1">
          <mxGeometry x="354" y="50" width="120" height="60" as="geometry" />
        </mxCell>
        <mxCell id="vEDVwVPxesnHrMMO5t7R-16" style="edgeStyle=orthogonalEdgeStyle;rounded=0;orthogonalLoop=1;jettySize=auto;html=1;exitX=0.5;exitY=0;exitDx=0;exitDy=0;entryX=0;entryY=0.25;entryDx=0;entryDy=0;" edge="1" parent="1" source="vEDVwVPxesnHrMMO5t7R-2" target="vEDVwVPxesnHrMMO5t7R-1">
          <mxGeometry relative="1" as="geometry" />
        </mxCell>
        <mxCell id="vEDVwVPxesnHrMMO5t7R-2" value="Planos" style="rounded=0;whiteSpace=wrap;html=1;" vertex="1" parent="1">
          <mxGeometry x="36" y="170" width="120" height="60" as="geometry" />
        </mxCell>
        <mxCell id="vEDVwVPxesnHrMMO5t7R-11" style="edgeStyle=orthogonalEdgeStyle;rounded=0;orthogonalLoop=1;jettySize=auto;html=1;exitX=0.5;exitY=0;exitDx=0;exitDy=0;entryX=0;entryY=0.75;entryDx=0;entryDy=0;" edge="1" parent="1" source="vEDVwVPxesnHrMMO5t7R-3" target="vEDVwVPxesnHrMMO5t7R-1">
          <mxGeometry relative="1" as="geometry" />
        </mxCell>
        <mxCell id="vEDVwVPxesnHrMMO5t7R-3" value="Login" style="rounded=0;whiteSpace=wrap;html=1;" vertex="1" parent="1">
          <mxGeometry x="196" y="170" width="120" height="60" as="geometry" />
        </mxCell>
        <mxCell id="vEDVwVPxesnHrMMO5t7R-13" style="edgeStyle=orthogonalEdgeStyle;rounded=0;orthogonalLoop=1;jettySize=auto;html=1;exitX=0.5;exitY=0;exitDx=0;exitDy=0;entryX=0.5;entryY=1;entryDx=0;entryDy=0;" edge="1" parent="1" source="vEDVwVPxesnHrMMO5t7R-4" target="vEDVwVPxesnHrMMO5t7R-1">
          <mxGeometry relative="1" as="geometry" />
        </mxCell>
        <mxCell id="vEDVwVPxesnHrMMO5t7R-4" value="Download" style="rounded=0;whiteSpace=wrap;html=1;" vertex="1" parent="1">
          <mxGeometry x="354" y="170" width="120" height="60" as="geometry" />
        </mxCell>
        <mxCell id="vEDVwVPxesnHrMMO5t7R-15" style="edgeStyle=orthogonalEdgeStyle;rounded=0;orthogonalLoop=1;jettySize=auto;html=1;exitX=0.5;exitY=0;exitDx=0;exitDy=0;entryX=1;entryY=0.75;entryDx=0;entryDy=0;" edge="1" parent="1" source="vEDVwVPxesnHrMMO5t7R-5" target="vEDVwVPxesnHrMMO5t7R-1">
          <mxGeometry relative="1" as="geometry" />
        </mxCell>
        <mxCell id="vEDVwVPxesnHrMMO5t7R-5" value="Contatos" style="rounded=0;whiteSpace=wrap;html=1;" vertex="1" parent="1">
          <mxGeometry x="512" y="170" width="120" height="60" as="geometry" />
        </mxCell>
        <mxCell id="vEDVwVPxesnHrMMO5t7R-19" style="edgeStyle=orthogonalEdgeStyle;rounded=0;orthogonalLoop=1;jettySize=auto;html=1;exitX=0.5;exitY=0;exitDx=0;exitDy=0;entryX=1;entryY=0.25;entryDx=0;entryDy=0;" edge="1" parent="1" source="vEDVwVPxesnHrMMO5t7R-6" target="vEDVwVPxesnHrMMO5t7R-1">
          <mxGeometry relative="1" as="geometry" />
        </mxCell>
        <mxCell id="vEDVwVPxesnHrMMO5t7R-6" value="Sobre nós" style="rounded=0;whiteSpace=wrap;html=1;" vertex="1" parent="1">
          <mxGeometry x="672" y="170" width="120" height="60" as="geometry" />
        </mxCell>
      </root>
    </mxGraphModel>
  </diagram>
</mxfile>
